<svg width="25" height="25" viewBox="0 0 25 25" fill="none" xmlns="http://www.w3.org/2000/svg">
<g id="linkedin-in 1">
<path id="Vector" d="M5.59598 21.875H0.412946V7.27051H5.59598V21.875ZM3.00167 5.27832C1.34431 5.27832 0 4.07715 0 2.62695C1.18627e-08 1.93037 0.316247 1.26232 0.87917 0.769762C1.44209 0.277204 2.20558 0.000488281 3.00167 0.000488281C3.79777 0.000488281 4.56125 0.277204 5.12418 0.769762C5.6871 1.26232 6.00335 1.93037 6.00335 2.62695C6.00335 4.07715 4.65848 5.27832 3.00167 5.27832ZM24.9944 21.875H19.8225V14.7656C19.8225 13.0713 19.7835 10.8984 17.1278 10.8984C14.433 10.8984 14.0201 12.7393 14.0201 14.6436V21.875H8.84263V7.27051H13.8136V9.2627H13.8862C14.5781 8.11523 16.2684 6.9043 18.7902 6.9043C24.0357 6.9043 25 9.92676 25 13.8525V21.875H24.9944Z" fill="#824644"/>
</g>
</svg>
