<svg width="35" height="35" viewBox="0 0 35 35" fill="none" xmlns="http://www.w3.org/2000/svg">
<rect width="35" height="35" rx="8" fill="#BC9C90"/>
<g clip-path="url(#clip0_6_248)">
<path d="M13.3619 24.4043C13.3619 24.502 13.246 24.5801 13.0998 24.5801C12.9335 24.5947 12.8175 24.5166 12.8175 24.4043C12.8175 24.3066 12.9335 24.2285 13.0796 24.2285C13.2308 24.2139 13.3619 24.292 13.3619 24.4043ZM11.7944 24.1846C11.7591 24.2822 11.8599 24.3945 12.0111 24.4238C12.1421 24.4727 12.2933 24.4238 12.3236 24.3262C12.3538 24.2285 12.2581 24.1162 12.1069 24.0723C11.9758 24.0381 11.8296 24.0869 11.7944 24.1846ZM14.0222 24.1016C13.876 24.1357 13.7752 24.2285 13.7903 24.3408C13.8054 24.4385 13.9365 24.502 14.0877 24.4678C14.2339 24.4336 14.3347 24.3408 14.3196 24.2432C14.3044 24.1504 14.1683 24.0869 14.0222 24.1016ZM17.3387 5.39062C10.3478 5.39062 5 10.5322 5 17.3047C5 22.7197 8.51815 27.3535 13.5433 28.9844C14.1885 29.0967 14.4153 28.7109 14.4153 28.3936C14.4153 28.0908 14.4002 26.4209 14.4002 25.3955C14.4002 25.3955 10.872 26.1279 10.131 23.9404C10.131 23.9404 9.55645 22.5195 8.72984 22.1533C8.72984 22.1533 7.5756 21.3867 8.81048 21.4014C8.81048 21.4014 10.0655 21.499 10.756 22.6611C11.8599 24.5459 13.7097 24.0039 14.4304 23.6816C14.5464 22.9004 14.874 22.3584 15.2369 22.0361C12.4194 21.7334 9.57661 21.3379 9.57661 16.6406C9.57661 15.2979 9.95968 14.624 10.7661 13.7646C10.6351 13.4473 10.2067 12.1387 10.8972 10.4492C11.9506 10.1318 14.375 11.7676 14.375 11.7676C15.3831 11.4941 16.4667 11.3525 17.5403 11.3525C18.6139 11.3525 19.6976 11.4941 20.7056 11.7676C20.7056 11.7676 23.13 10.127 24.1835 10.4492C24.874 12.1436 24.4456 13.4473 24.3145 13.7646C25.121 14.6289 25.6149 15.3027 25.6149 16.6406C25.6149 21.3525 22.6462 21.7285 19.8286 22.0361C20.2923 22.4219 20.6855 23.1543 20.6855 24.3018C20.6855 25.9473 20.6704 27.9834 20.6704 28.3838C20.6704 28.7012 20.9022 29.0869 21.5423 28.9746C26.5827 27.3535 30 22.7197 30 17.3047C30 10.5322 24.3296 5.39062 17.3387 5.39062ZM9.89919 22.2314C9.83367 22.2803 9.84879 22.3926 9.93448 22.4854C10.0151 22.5635 10.131 22.5977 10.1966 22.5342C10.2621 22.4854 10.247 22.373 10.1613 22.2803C10.0806 22.2021 9.96472 22.168 9.89919 22.2314ZM9.35484 21.8359C9.31956 21.8994 9.36996 21.9775 9.47077 22.0264C9.55141 22.0752 9.65222 22.0605 9.6875 21.9922C9.72278 21.9287 9.67238 21.8506 9.57157 21.8018C9.47077 21.7725 9.39012 21.7871 9.35484 21.8359ZM10.9879 23.5742C10.9073 23.6377 10.9375 23.7842 11.0534 23.877C11.1694 23.9893 11.3155 24.0039 11.381 23.9258C11.4466 23.8623 11.4163 23.7158 11.3155 23.623C11.2046 23.5107 11.0534 23.4961 10.9879 23.5742ZM10.4133 22.8564C10.3327 22.9053 10.3327 23.0322 10.4133 23.1445C10.494 23.2568 10.63 23.3057 10.6956 23.2568C10.7762 23.1934 10.7762 23.0664 10.6956 22.9541C10.625 22.8418 10.494 22.793 10.4133 22.8564Z" fill="white"/>
</g>
<defs>
<clipPath id="clip0_6_248">
<rect width="25" height="25" fill="white" transform="translate(5 5)"/>
</clipPath>
</defs>
</svg>
