<svg width="35" height="35" viewBox="0 0 35 35" fill="none" xmlns="http://www.w3.org/2000/svg">
<rect width="35" height="35" rx="8" fill="#BC9C90"/>
<path d="M10.596 26.875H5.41295V12.2705H10.596V26.875ZM8.00167 10.2783C6.34431 10.2783 5 9.07715 5 7.62695C5 6.93037 5.31625 6.26232 5.87917 5.76976C6.44209 5.2772 7.20558 5.00049 8.00167 5.00049C8.79777 5.00049 9.56125 5.2772 10.1242 5.76976C10.6871 6.26232 11.0033 6.93037 11.0033 7.62695C11.0033 9.07715 9.65848 10.2783 8.00167 10.2783ZM29.9944 26.875H24.8225V19.7656C24.8225 18.0713 24.7835 15.8984 22.1278 15.8984C19.433 15.8984 19.0201 17.7393 19.0201 19.6436V26.875H13.8426V12.2705H18.8136V14.2627H18.8862C19.5781 13.1152 21.2684 11.9043 23.7902 11.9043C29.0357 11.9043 30 14.9268 30 18.8525V26.875H29.9944Z" fill="white"/>
</svg>
